<svg width="148" height="55" viewBox="0 0 148 55" fill="none" xmlns="http://www.w3.org/2000/svg">
<rect x="0.0614624" y="0.255127" width="147.145" height="54.5362" rx="27.2681" fill="#70C217"/>
<path d="M50.1366 23.0462C49.8272 21.4994 48.5511 19.4886 45.2256 19.4886C42.6348 19.4886 40.45 21.3447 40.45 23.7809C40.45 25.8497 41.8614 27.2611 44.0462 27.7058L45.9603 28.0925C47.0237 28.3052 47.6231 28.9239 47.6231 29.7166C47.6231 30.6833 46.8304 31.3987 45.3996 31.3987C43.4662 31.3987 42.5188 30.1806 42.4028 28.8272L39.9279 29.4846C40.1406 31.4374 41.7454 33.7768 45.3803 33.7768C48.5705 33.7768 50.3299 31.65 50.3299 29.5426C50.3299 27.6091 48.9958 25.985 46.5017 25.5017L44.5876 25.1343C43.5822 24.941 43.0988 24.3416 43.0988 23.5875C43.0988 22.6788 43.9495 21.8474 45.2449 21.8474C46.985 21.8474 47.6037 23.0268 47.7391 23.7809L50.1366 23.0462ZM69.3521 33.4868H72.2522L67.0319 19.7786H63.9384L58.6794 33.4868H61.5022L62.643 30.3546H68.2113L69.3521 33.4868ZM65.4271 22.7368L67.3219 27.9185H63.5324L65.4271 22.7368ZM90.5172 33.4868V30.9347H84.4075V19.7786H81.7393V33.4868H90.5172ZM108.877 33.4868V30.9733H102.96V27.8025H108.316V25.4243H102.96V22.2921H108.877V19.7786H100.292V33.4868H108.877Z" fill="white"/>
</svg>
